<svg width="1336.1033691406249px" height="317.60003662109375px" xmlns="http://www.w3.org/2000/svg" viewBox="-418.05168457031243 -83.80001831054688 1336.1033691406249 317.60003662109375" style="background: rgba(255, 255, 255, 0);" preserveAspectRatio="xMidYMid"><defs><filter id="editing-jagged" x="-100%" y="-100%" width="300%" height="300%"><feTurbulence result="turb" baseFrequency="0" numOctaves="1" seed="1"></feTurbulence><feDisplacementMap in="SourceGraphic" in2="turb" scale="20"></feDisplacementMap></filter></defs><g filter="url(#editing-jagged)"><g transform="translate(-236.58220529556274, 145.5)"><path d="M7.90-116.56L7.90-116.56L7.90-116.56Q13.35-127.84 28.48-127.84L28.48-127.84L28.48-127.84Q43.62-127.84 50.67-119.10L50.67-119.10L50.67-119.10Q57.72-110.36 57.72-90.24L57.72-90.24L57.72-23.12L103.40-123.89L125.77-123.89L67.30 0L23.31 0L17.67-90.24L17.67-90.24Q17.11-100.20 14.38-106.97L14.38-106.97L14.38-106.97Q11.66-113.74 7.90-116.56ZM156.23 3.76L156.23 3.76L156.23 3.76Q114.87 3.76 114.87-35.16L114.87-35.16L114.87-35.16Q114.87-62.79 130.10-80.65L130.10-80.65L130.10-80.65Q146.26-99.64 174.28-99.64L174.28-99.64L174.28-99.64Q194.58-99.64 204.92-90.24L204.92-90.24L204.92-90.24Q215.26-80.84 215.26-61.10L215.26-61.10L215.26-61.10Q215.26-31.02 199.09-13.54L199.09-13.54L199.09-13.54Q183.30 3.76 156.23 3.76ZM161.12-78.02L161.12-78.02L161.12-78.02Q158.86-72.94 157.07-65.33L157.07-65.33L157.07-65.33Q155.29-57.72 153.03-45.68L153.03-45.68L153.03-45.68Q150.78-33.65 150.78-18.80L150.78-18.80L150.78-18.80Q150.78-13.91 152.37-10.72L152.37-10.72L152.37-10.72Q153.97-7.52 158.30-7.52L158.30-7.52L158.30-7.52Q162.62-7.52 165.35-9.59L165.35-9.59L165.35-9.59Q168.07-11.66 170.14-16.54L170.14-16.54L170.14-16.54Q173.90-25.19 176.91-41.27L176.91-41.27L176.91-41.27Q179.92-57.34 180.20-64.30L180.20-64.30L180.20-64.30Q180.48-71.25 180.48-76.42L180.48-76.42L180.48-76.42Q180.48-81.59 178.98-84.98L178.98-84.98L178.98-84.98Q177.47-88.36 173.24-88.36L173.24-88.36L173.24-88.36Q169.01-88.36 166.19-85.73L166.19-85.73L166.19-85.73Q163.37-83.10 161.12-78.02ZM271.47-10.34L271.47-10.34L271.47-10.34Q265.64 3.76 247.03 3.76L247.03 3.76L247.03 3.76Q237.44 3.76 231.43-2.82L231.43-2.82L231.43-2.82Q226.35-8.65 226.35-14.48L226.35-14.48L226.35-14.48Q226.35-29.70 233.31-59.41L233.31-59.41L240.26-95.88L278.43-99.64L266.96-40.23L266.96-40.23Q263.76-26.32 263.76-21.43L263.76-21.43L263.76-21.43Q263.76-10.72 271.47-10.34ZM243.65-122.01L243.65-122.01L243.65-122.01Q243.65-129.34 249.76-133.29L249.76-133.29L249.76-133.29Q255.87-137.24 264.70-137.24L264.70-137.24L264.70-137.24Q273.54-137.24 278.90-133.29L278.90-133.29L278.90-133.29Q284.26-129.34 284.26-122.01L284.26-122.01L284.26-122.01Q284.26-114.68 278.33-110.92L278.33-110.92L278.33-110.92Q272.41-107.16 263.58-107.16L263.58-107.16L263.58-107.16Q254.74-107.16 249.19-110.92L249.19-110.92L249.19-110.92Q243.65-114.68 243.65-122.01ZM346.67-99.64L346.67-99.64L346.67-99.64Q353.44-99.64 358.70-98.14L358.70-98.14L358.70-98.14Q358.89-98.89 359.27-100.96L359.27-100.96L360.21-106.78L360.21-106.78Q360.96-110.54 362.09-116.75L362.09-116.75L365.10-131.60L402.51-135.36L381.64-26.32L381.64-26.32Q381.45-25.19 381.45-23.31L381.45-23.31L381.45-20.30L381.45-20.30Q381.45-16.17 383.52-13.07L383.52-13.07L383.52-13.07Q385.59-9.96 388.97-9.96L388.97-9.96L388.97-9.96Q385.21-1.13 373.74 2.63L373.74 2.63L373.74 2.63Q369.80 3.76 364.25 3.76L364.25 3.76L364.25 3.76Q358.70 3.76 353.63 0.85L353.63 0.85L353.63 0.85Q348.55-2.07 347.05-6.96L347.05-6.96L347.05-6.96Q344.04-2.07 338.02 0.85L338.02 0.85L338.02 0.85Q332.01 3.76 323.27 3.76L323.27 3.76L323.27 3.76Q314.52 3.76 307.29 1.50L307.29 1.50L307.29 1.50Q300.05-0.75 295.54-5.64L295.54-5.64L295.54-5.64Q287.26-15.23 287.26-37.04L287.26-37.04L287.26-37.04Q287.26-65.24 303.81-82.34L303.81-82.34L303.81-82.34Q320.35-99.64 346.67-99.64ZM345.36-88.36L345.36-88.36L345.36-88.36Q338.40-88.36 334.64-80.84L334.64-80.84L334.64-80.84Q330.88-73.32 327.03-54.71L327.03-54.71L327.03-54.71Q323.17-36.10 323.17-19.36L323.17-19.36L323.17-19.36Q323.17-7.90 329.94-7.90L329.94-7.90L329.94-7.90Q335.96-7.90 340.19-13.91L340.19-13.91L340.19-13.91Q344.42-19.93 346.11-29.89L346.11-29.89L356.26-84.98L356.26-84.98Q352.31-88.36 345.36-88.36ZM403.07-0.94L403.07-0.94L426.76-124.08L426.76-124.08Q448.94-125.96 463.23-125.96L463.23-125.96L463.23-125.96Q477.52-125.96 486.73-124.74L486.73-124.74L486.73-124.74Q495.94-123.52 502.15-120.32L502.15-120.32L502.15-120.32Q514.56-114.30 514.56-97.76L514.56-97.76L514.56-97.76Q514.56-88.17 506.28-80.09L506.28-80.09L506.28-80.09Q498.58-72.76 490.12-71.06L490.12-71.06L490.12-71.06Q499.14-69.56 505.53-62.79L505.53-62.79L505.53-62.79Q512.30-55.65 512.30-44.56L512.30-44.56L512.30-44.56Q512.30-23.12 496.32-10.62L496.32-10.62L496.32-10.62Q480.34 1.88 448.94 1.88L448.94 1.88L448.94 1.88Q427.32 1.88 403.07-0.94ZM454.21-60.54L444.81-11.84L444.81-11.84Q446.50-11.66 446.88-11.66L446.88-11.66L448.57-11.66L448.57-11.66Q463.98-11.66 470.56-21.81L470.56-21.81L470.56-21.81Q475.45-29.70 475.45-44.18L475.45-44.18L475.45-44.18Q475.45-51.89 470.47-56.02L470.47-56.02L470.47-56.02Q465.49-60.16 454.21-60.54L454.21-60.54ZM482.78-97.57L482.78-97.57L482.78-97.57Q482.78-113.18 467.74-113.18L467.74-113.18L466.05-113.18L466.05-113.18Q465.30-113.18 464.17-112.99L464.17-112.99L456.65-73.32L458.53-73.32L458.53-73.32Q482.78-73.88 482.78-97.57ZM565.69 3.76L565.69 3.76L565.69 3.76Q524.33 3.76 524.33-35.16L524.33-35.16L524.33-35.16Q524.33-62.79 539.56-80.65L539.56-80.65L539.56-80.65Q555.73-99.64 583.74-99.64L583.74-99.64L583.74-99.64Q604.04-99.64 614.38-90.24L614.38-90.24L614.38-90.24Q624.72-80.84 624.72-61.10L624.72-61.10L624.72-61.10Q624.72-31.02 608.56-13.54L608.56-13.54L608.56-13.54Q592.76 3.76 565.69 3.76ZM570.58-78.02L570.58-78.02L570.58-78.02Q568.32-72.94 566.54-65.33L566.54-65.33L566.54-65.33Q564.75-57.72 562.50-45.68L562.50-45.68L562.50-45.68Q560.24-33.65 560.24-18.80L560.24-18.80L560.24-18.80Q560.24-13.91 561.84-10.72L561.84-10.72L561.84-10.72Q563.44-7.52 567.76-7.52L567.76-7.52L567.76-7.52Q572.08-7.52 574.81-9.59L574.81-9.59L574.81-9.59Q577.54-11.66 579.60-16.54L579.60-16.54L579.60-16.54Q583.36-25.19 586.37-41.27L586.37-41.27L586.37-41.27Q589.38-57.34 589.66-64.30L589.66-64.30L589.66-64.30Q589.94-71.25 589.94-76.42L589.94-76.42L589.94-76.42Q589.94-81.59 588.44-84.98L588.44-84.98L588.44-84.98Q586.94-88.36 582.71-88.36L582.71-88.36L582.71-88.36Q578.48-88.36 575.66-85.73L575.66-85.73L575.66-85.73Q572.84-83.10 570.58-78.02ZM643.99-5.64L643.99-5.64L643.99-5.64Q639.58-10.53 637.60-18.24L637.60-18.24L637.60-18.24Q635.63-25.94 635.63-38.54L635.63-38.54L635.63-38.54Q635.63-51.14 639.95-62.60L639.95-62.60L639.95-62.60Q644.28-74.07 652.17-82.34L652.17-82.34L652.17-82.34Q668.34-99.64 695.04-99.64L695.04-99.64L695.04-99.64Q704.62-99.64 711.58-96.44L711.58-96.44L743.73-99.64L729.82-26.32L729.82-26.32Q729.25-24.06 729.25-19.93L729.25-19.93L729.25-19.93Q729.25-15.79 731.79-13.16L731.79-13.16L731.79-13.16Q734.33-10.53 738.09-10.15L738.09-10.15L738.09-10.15Q736.21-3.76 729.35 0L729.35 0L729.35 0Q722.48 3.76 714.78 3.76L714.78 3.76L714.78 3.76Q707.07 3.76 701.90 0.85L701.90 0.85L701.90 0.85Q696.73-2.07 695.22-6.96L695.22-6.96L695.22-6.96Q692.22-2.26 685.82 0.75L685.82 0.75L685.82 0.75Q679.43 3.76 670.88 3.76L670.88 3.76L670.88 3.76Q662.32 3.76 655.37 1.50L655.37 1.50L655.37 1.50Q648.41-0.75 643.99-5.64ZM683.66-81.97L683.66-81.97L683.66-81.97Q681.50-78.58 679.62-72.85L679.62-72.85L679.62-72.85Q677.74-67.12 674.64-51.79L674.64-51.79L674.64-51.79Q671.54-36.47 671.54-25.57L671.54-25.57L671.54-25.57Q671.54-14.66 673.23-11.47L673.23-11.47L673.23-11.47Q674.92-8.27 677.93-8.27L677.93-8.27L677.93-8.27Q683.94-8.27 688.36-14.01L688.36-14.01L688.36-14.01Q692.78-19.74 694.47-29.89L694.47-29.89L704.44-84.98L704.44-84.98Q700.49-88.36 695.88-88.36L695.88-88.36L695.88-88.36Q691.28-88.36 688.55-86.86L688.55-86.86L688.55-86.86Q685.82-85.35 683.66-81.97ZM812.72-52.83L812.72-52.83L812.72-52.83Q819.49-64.86 819.49-77.08L819.49-77.08L819.49-77.08Q819.49-85.16 813.66-85.16L813.66-85.16L813.66-85.16Q809.15-85.16 804.45-77.46L804.45-77.46L804.45-77.46Q799.56-69.75 798.06-59.78L798.06-59.78L788.28 0L749.37 3.76L768.54-95.88L799.56-99.64L796.18-80.65L796.18-80.65Q805.39-99.64 826.07-99.64L826.07-99.64L826.07-99.64Q836.98-99.64 842.90-94L842.90-94L842.90-94Q848.82-88.36 848.82-76.80L848.82-76.80L848.82-76.80Q848.82-65.24 841.21-57.90L841.21-57.90L841.21-57.90Q833.59-50.57 820.62-50.57L820.62-50.57L820.62-50.57Q814.98-50.57 812.72-52.83ZM911.05-99.64L911.05-99.64L911.05-99.64Q917.82-99.64 923.08-98.14L923.08-98.14L923.08-98.14Q923.27-98.89 923.64-100.96L923.64-100.96L924.58-106.78L924.58-106.78Q925.34-110.54 926.46-116.75L926.46-116.75L929.47-131.60L966.88-135.36L946.02-26.32L946.02-26.32Q945.83-25.19 945.83-23.31L945.83-23.31L945.83-20.30L945.83-20.30Q945.83-16.17 947.90-13.07L947.90-13.07L947.90-13.07Q949.96-9.96 953.35-9.96L953.35-9.96L953.35-9.96Q949.59-1.13 938.12 2.63L938.12 2.63L938.12 2.63Q934.17 3.76 928.63 3.76L928.63 3.76L928.63 3.76Q923.08 3.76 918.00 0.85L918.00 0.85L918.00 0.85Q912.93-2.07 911.42-6.96L911.42-6.96L911.42-6.96Q908.42-2.07 902.40 0.85L902.40 0.85L902.40 0.85Q896.38 3.76 887.64 3.76L887.64 3.76L887.64 3.76Q878.90 3.76 871.66 1.50L871.66 1.50L871.66 1.50Q864.42-0.75 859.91-5.64L859.91-5.64L859.91-5.64Q851.64-15.23 851.64-37.04L851.64-37.04L851.64-37.04Q851.64-65.24 868.18-82.34L868.18-82.34L868.18-82.34Q884.73-99.64 911.05-99.64ZM909.73-88.36L909.73-88.36L909.73-88.36Q902.78-88.36 899.02-80.84L899.02-80.84L899.02-80.84Q895.26-73.32 891.40-54.71L891.40-54.71L891.40-54.71Q887.55-36.10 887.55-19.36L887.55-19.36L887.55-19.36Q887.55-7.90 894.32-7.90L894.32-7.90L894.32-7.90Q900.33-7.90 904.56-13.91L904.56-13.91L904.56-13.91Q908.79-19.93 910.48-29.89L910.48-29.89L920.64-84.98L920.64-84.98Q916.69-88.36 909.73-88.36Z" fill="#fff"></path></g></g><style>text {
  font-size: 64px;
  font-family: Arial Black;
  dominant-baseline: central;
  text-anchor: middle;
}</style></svg>